# xmcd
#
# Track frame offsets:
#	150
#	14995
#	32455
#	43325
#	54855
#	67380
#	78150
#	90830
#	107402
#	116195
#	128812
#	137827
#	148405
#	159310
#
# Disc length: 2382 seconds
#
# Revision: 0
# Processed by: cddbd v1.4PL0 Copyright (c) Steve Scherf et al.
# Submitted via: dBpowerAMP V4.0
#
DISCID=c3094c0e
DTITLE=Various Artist - Country Greatest 2
DYEAR=1900
DGENRE=Country
TTITLE0=Billie Jo Spears/Crazy
TTITLE1=Kenny Rogers/Something's Burning
TTITLE2=Johnny Cash/I Love You Because
TTITLE3=Jerry Lee Lewis/Your Cheatin' Heart
TTITLE4=Jeannie C. Riley/Roses And Thorns
TTITLE5=Charlie Rich/Unchained Melody
TTITLE6=Roger Miller/Heartaches By The Number
TTITLE7=Dick van Altena/Dust On The Flattop
TTITLE8=Waylon Jennings/Love's Gonna Live Here
TTITLE9=Bobby Bare/500 Miles Away From Home
TTITLE10=Webb Pierce/I Ain't Never
TTITLE11=Roy Drusky/Strangers
TTITLE12=Hank Locklin/Send Me The Pillow That You Dream On
TTITLE13=Matt Minglewood/Working Man
EXTD=
EXTT0=
EXTT1=
EXTT2=
EXTT3=
EXTT4=
EXTT5=
EXTT6=
EXTT7=
EXTT8=
EXTT9=
EXTT10=
EXTT11=
EXTT12=
EXTT13=
PLAYORDER=
